<?xml version="1.0" ?><svg style="enable-background:new 0 0 960 960;" version="1.1" viewBox="0 0 960 960" xml:space="preserve" xmlns="http://www.w3.org/2000/svg" xmlns:xlink="http://www.w3.org/1999/xlink"><style type="text/css">
	.st0{display:none;}
	.st1{display:inline;opacity:0.93;}
	.st2{display:inline;fill:none;stroke:#000000;stroke-width:15;stroke-linecap:round;stroke-linejoin:round;stroke-miterlimit:10;}
	.st3{display:inline;}
	.st4{fill:none;stroke:#000000;stroke-width:15;stroke-linecap:round;stroke-linejoin:round;stroke-miterlimit:10;}
	.st5{display:inline;fill:none;stroke:#1A1D3F;stroke-width:15;stroke-linecap:round;stroke-linejoin:round;stroke-miterlimit:10;}
	.st6{fill:#DDEDE7;}
	.st7{fill:#1A1D3F;}
	.st8{fill:#E9B44D;}
	.st9{fill:#ED644E;}
	.st10{fill:#494EDF;}
	.st11{fill:#3DC5A1;}
	.st12{fill:#F6CEC1;}
	.st13{fill:none;}
	.st14{fill:none;stroke:#1A1D3F;stroke-width:15;stroke-linecap:round;stroke-linejoin:round;stroke-miterlimit:10;}
	.st15{display:inline;fill:#E9B44D;}
	.st16{fill:#222222;}
	.st17{display:inline;fill:#222222;}
</style><g class="st0" id="guide"/><g class="st0" id="sketch"/><g class="st0" id="stroke"><g class="st3"><path class="st4" d="M605.2,310.2c6.1-4.9,76.1-74.7,134.7-41.7c47,26.5,48.2,72.8,26.8,109.7c-21.3,36.9-57.5,64-96.5,81.2    c-151.9,67-217.7,95.5-374.4,146.4c-35,11.4-118.3,21.8-161.3-27.6c-50.4-57.9,3.5-114.6,44.7-130.3c29-11.1,62.8-0.8,93.4-6    c59.9-10.2,117.4-35.1,173.4-58.7C493,363.2,565.9,342.1,605.2,310.2z"/><path class="st4" d="M765.7,468c34.6,43.6,38.6,109,9.8,156.6"/><path class="st4" d="M310.1,671.3c2,10.3,9.1,19.4,18.4,24.4c9.3,5,20.5,5.9,30.6,3c10.7-3.1,20.2-10.5,25.4-20.3    c10.8-20.4-1.5-55.4-27.6-55.9C332.1,621.8,305,645.4,310.1,671.3z"/><path class="st4" d="M651.3,550.7c5.5,7.1,13.7,12,22.5,13.4c18.5,3,38.1-11.1,41-29.7c3.3-20.6-17.5-47.1-39.5-42.6    C649.3,497.1,634.7,529.1,651.3,550.7z"/><path class="st4" d="M798.5,421c33.7,35.2,51.1,85.3,46.7,133.8"/><path d="M269.5,494.5c-9.6,0.3-9.3,15.3,0.4,15C279.5,509.2,279.1,494.2,269.5,494.5z"/><path d="M313.3,479.4c-9.6,0.3-9.3,15.3,0.4,15C323.3,494.1,322.9,479.1,313.3,479.4z"/><path d="M283.8,531.6c-9.6,0.3-9.3,15.3,0.4,15C293.8,546.4,293.4,531.4,283.8,531.6z"/><path d="M329.4,514.1c-9.6,0.3-9.3,15.3,0.4,15C339.4,528.8,339,513.8,329.4,514.1z"/><path d="M592.2,376.8c-9.6,0.3-9.3,15.3,0.4,15C602.3,391.5,601.9,376.5,592.2,376.8z"/><path d="M631.7,357c-9.6,0.3-9.3,15.3,0.4,15C641.7,371.7,641.3,356.7,631.7,357z"/><path d="M610.2,413.3c-9.6,0.3-9.3,15.3,0.4,15C620.2,428,619.8,413,610.2,413.3z"/><path d="M651.4,393.4c-9.6,0.3-9.3,15.3,0.4,15C661.5,408.1,661.1,393.1,651.4,393.4z"/></g></g><g id="outline"><path d="M217.6,622.2c4.8,0.3,9.5,0.5,14.3,0.5c26.2,0,50.7-4.8,66.2-9.8c153.7-50,216.4-76.7,375.1-146.7   c31.4-13.8,74.2-39.7,100-84.3c13.5-23.3,17.6-48.3,11.6-70.3c-5.6-20.4-19.9-37.6-41.3-49.6c-25.2-14.2-54.9-13-88.3,3.5   c-25.5,12.6-45.3,30.4-52.8,37.1c-0.9,0.8-1.8,1.6-2.1,1.8c-27.9,22.6-74.4,40-115.3,55.4c-15.1,5.7-29.4,11-42,16.3l-5.6,2.4   c-53.6,22.7-109.1,46.1-166.1,55.9c-12.1,2.1-24.8,1.6-38.2,1c-18.9-0.8-38.4-1.6-56.7,5.4C150,451,117.4,477.6,108.8,512   c-6.1,24.4,0.9,49,20.1,71C148.9,606,179.6,619.5,217.6,622.2z M123.4,515.7c7-27.9,34.7-51.7,58.6-60.9   c10.3-3.9,21.4-4.9,33.1-4.9c5.8,0,11.6,0.2,17.6,0.5c13.6,0.6,27.6,1.1,41.3-1.2c58.8-10,115-33.8,169.5-56.9l5.6-2.4   c12.3-5.2,26.4-10.5,41.4-16.1c42-15.8,89.7-33.6,119.5-57.8c0.6-0.5,1.4-1.2,2.6-2.3c7-6.3,25.7-23.1,49.4-34.8   c28.6-14.2,53.6-15.5,74.3-3.9c18.1,10.2,29.6,23.8,34.2,40.5c4.9,18.1,1.3,39-10.1,58.8c-23.8,41.1-63.7,65.1-93,78   C509,522.2,446.5,548.8,293.5,598.6c-28.4,9.2-111.4,22.7-153.3-25.4C124.1,554.7,118.4,535.4,123.4,515.7z M769.1,620.7   c27.1-44.8,23.3-107-9.2-148.1c-2.6-3.2-2-8,1.2-10.5c3.2-2.6,8-2,10.5,1.2c17.7,22.3,28.4,51.1,30.3,81c1.9,29.9-5.2,59.8-20,84.2   c-1.4,2.3-3.9,3.6-6.4,3.6c-1.3,0-2.7-0.4-3.9-1.1C768,628.9,766.9,624.2,769.1,620.7z M357.1,614.9c-16-0.4-32.8,7.6-43.8,20.7   c-9.3,11.1-13.1,24.3-10.5,37.2c2.4,12.3,10.7,23.4,22.2,29.5c6.8,3.7,14.6,5.5,22.5,5.5c4.6,0,9.3-0.6,13.8-1.9   c12.9-3.7,23.9-12.5,30-24c7.2-13.5,6.2-32.5-2.4-47.2C381.6,622.4,370,615.2,357.1,614.9z M377.9,674.8   c-4.2,7.9-12,14.1-20.9,16.7c-8.5,2.4-17.6,1.6-25-2.4c-7.4-4-13-11.4-14.6-19.2c-1.6-8.3,1-17,7.3-24.6   c7.9-9.4,20.1-15.4,31.3-15.4c0.2,0,0.5,0,0.7,0c10.4,0.2,16.4,7.9,19.1,12.4C381.8,652.5,382.7,665.8,377.9,674.8z M672.6,571.5   c2,0.3,4.1,0.5,6.2,0.5c8.9,0,18-3,25.7-8.6c9.5-6.9,16-17,17.7-27.8c2.1-13.5-3.8-29.2-15.2-40.1c-9.7-9.3-21.8-13.4-33.2-11.1   c-15.4,3.1-28.5,14.4-34.1,29.6c-5.4,14.4-3.3,29.4,5.7,41.2v0C652,563.8,661.9,569.8,672.6,571.5z M653.7,519.3   c3.9-10.3,12.7-18.1,23.1-20.1c8.9-1.8,16.3,3.7,19.9,7.2c7.8,7.5,12.1,18.3,10.7,26.9c-1.1,6.9-5.3,13.4-11.6,18   c-6.3,4.6-13.9,6.5-20.7,5.4c-7-1.1-13.5-5-17.8-10.6v0C651.5,538.5,650.2,528.8,653.7,519.3z M793.1,426.2   c-2.9-3-2.8-7.7,0.2-10.6c3-2.9,7.7-2.8,10.6,0.2c35.2,36.8,53.4,89,48.7,139.6c-0.4,3.9-3.6,6.8-7.5,6.8c-0.2,0-0.5,0-0.7,0   c-4.1-0.4-7.2-4-6.8-8.2C842,507.7,825.3,459.9,793.1,426.2z M269.5,494.5c9.7-0.3,10,14.7,0.4,15   C260.2,509.7,259.8,494.7,269.5,494.5z M313.3,479.4c9.7-0.3,10,14.7,0.4,15C304,494.6,303.6,479.6,313.3,479.4z M283.8,531.6   c9.7-0.3,10,14.7,0.4,15C274.5,546.9,274.1,531.9,283.8,531.6z M329.4,514.1c9.7-0.3,10,14.7,0.4,15   C320.1,529.3,319.7,514.3,329.4,514.1z M592.2,376.8c9.7-0.3,10,14.7,0.4,15C583,392.1,582.6,377.1,592.2,376.8z M631.7,357   c9.7-0.3,10,14.7,0.4,15C622.4,372.2,622,357.2,631.7,357z M610.2,413.3c9.7-0.3,10,14.7,0.4,15   C600.9,428.5,600.5,413.5,610.2,413.3z M651.4,393.4c9.7-0.3,10,14.7,0.4,15C642.2,408.7,641.8,393.7,651.4,393.4z"/></g><g class="st0" id="flat"><g class="st3"><g><g><g><g><g><g><g><g><g><path class="st8" d="M605.2,310.2c6.1-4.9,76.1-74.7,134.7-41.7c47,26.5,48.2,72.8,26.8,109.7             c-21.3,36.9-57.5,64-96.5,81.2c-151.9,67-217.7,95.5-374.4,146.4c-35,11.4-118.3,21.8-161.3-27.6             c-50.4-57.9,3.5-114.6,44.7-130.3c29-11.1,62.8-0.8,93.4-6c59.9-10.2,117.4-35.1,173.4-58.7             C493,363.2,565.9,342.1,605.2,310.2z"/></g></g></g></g></g></g></g></g><g><g><g><g><g><g><g><g><path class="st7" d="M775.5,632.1c-1.3,0-2.7-0.4-3.9-1.1c-3.5-2.1-4.7-6.8-2.5-10.3c27.1-44.8,23.3-107-9.2-148.1             c-2.6-3.2-2-8,1.2-10.5c3.2-2.6,8-2,10.5,1.2c17.7,22.3,28.4,51.1,30.3,81c1.9,29.9-5.2,59.8-20,84.2             C780.5,630.8,778,632.1,775.5,632.1z"/></g></g></g></g></g></g></g></g><g><g><g><g><g><g><g><g><path class="st9" d="M304,672.8c2.4,11.9,10.5,22.5,21.3,28.2c10.7,5.8,23.7,6.8,35.4,3.5c12.4-3.6,23.4-12.1,29.4-23.6             c12.5-23.7-1.8-64.1-31.9-64.7C329.5,615.6,298.1,642.8,304,672.8z"/></g></g></g></g></g></g></g></g><g><g><g><g><g><g><g><g><path class="st9" d="M643.6,556.9c6.9,9,17.4,15.3,28.7,17.1c23.6,3.8,48.5-14.2,52.2-37.8c4.1-26.3-22.3-59.9-50.3-54.3             C641,488.6,622.5,529.4,643.6,556.9z"/></g></g></g></g></g></g></g></g><g><g><g><g><g><g><g><g><path class="st7" d="M845.2,562.3c-0.2,0-0.5,0-0.7,0c-4.1-0.4-7.2-4-6.8-8.2c4.3-46.4-12.4-94.2-44.6-127.9             c-2.9-3-2.8-7.7,0.2-10.6c3-2.9,7.7-2.8,10.6,0.2c35.2,36.8,53.4,89,48.7,139.6C852.3,559.3,849,562.3,845.2,562.3z"/></g></g></g></g></g></g></g></g><g><g><g><g><g><g><g><g><path class="st7" d="M269.5,494.5c-9.6,0.3-9.3,15.3,0.4,15C279.5,509.2,279.1,494.2,269.5,494.5z"/></g></g></g></g></g></g></g></g><g><g><g><g><g><g><g><g><path class="st7" d="M313.3,479.4c-9.6,0.3-9.3,15.3,0.4,15C323.3,494.1,322.9,479.1,313.3,479.4z"/></g></g></g></g></g></g></g></g><g><g><g><g><g><g><g><g><path class="st7" d="M283.8,531.6c-9.6,0.3-9.3,15.3,0.4,15C293.8,546.4,293.4,531.4,283.8,531.6z"/></g></g></g></g></g></g></g></g><g><g><g><g><g><g><g><g><path class="st7" d="M329.4,514.1c-9.6,0.3-9.3,15.3,0.4,15C339.4,528.8,339,513.8,329.4,514.1z"/></g></g></g></g></g></g></g></g><g><g><g><g><g><g><g><g><path class="st7" d="M592.2,376.8c-9.6,0.3-9.3,15.3,0.4,15C602.3,391.5,601.9,376.5,592.2,376.8z"/></g></g></g></g></g></g></g></g><g><g><g><g><g><g><g><g><path class="st7" d="M631.7,357c-9.6,0.3-9.3,15.3,0.4,15C641.7,371.7,641.3,356.7,631.7,357z"/></g></g></g></g></g></g></g></g><g><g><g><g><g><g><g><g><path class="st7" d="M610.2,413.3c-9.6,0.3-9.3,15.3,0.4,15C620.2,428,619.8,413,610.2,413.3z"/></g></g></g></g></g></g></g></g><g><g><g><g><g><g><g><g><path class="st7" d="M651.4,393.4c-9.6,0.3-9.3,15.3,0.4,15C661.5,408.1,661.1,393.1,651.4,393.4z"/></g></g></g></g></g></g></g></g></g><g><g><g><g><g><g><g><path class="st7" d="M367.8,649.6c-7.9-11.3-25-5.7-31.9,3.6c-3.9,5.3-5,12.9-1.6,18.5c2.2,3.5,5.9,5.9,9.9,6.8           c4,0.9,8.2,0.4,12.1-1c5.5-2,10.3-6,12.7-11.3C371.4,661,371.1,654.4,367.8,649.6z"/></g></g></g></g></g></g></g><g><g><g><g><g><g><g><path class="st7" d="M662.1,518.8c-2.6,4.4-3.4,9.9-1.9,14.8c2,6.5,7.8,11.7,14.5,12.9c5,0.9,10.2-0.3,14.6-2.9           c6.5-3.8,11.3-11,10.8-18.5c-0.5-7.5-6.4-13.1-13.6-14.2c-6.7-1-16-0.8-21.3,4C664,516,663,517.3,662.1,518.8z"/></g></g></g></g></g></g></g></g></g><g class="st0" id="colored_x5F_line"><g class="st3"><g><path class="st8" d="M605.2,310.2c6.1-4.9,76.1-74.7,134.7-41.7c47,26.5,48.2,72.8,26.8,109.7c-21.3,36.9-57.5,64-96.5,81.2     c-151.9,67-217.7,95.5-374.4,146.4c-35,11.4-118.3,21.8-161.3-27.6c-50.4-57.9,3.5-114.6,44.7-130.3c29-11.1,62.8-0.8,93.4-6     c59.9-10.2,117.4-35.1,173.4-58.7C493,363.2,565.9,342.1,605.2,310.2z"/></g><g><path class="st16" d="M775.5,632.1c-1.3,0-2.7-0.4-3.9-1.1c-3.5-2.1-4.7-6.8-2.5-10.3c27.1-44.8,23.3-107-9.2-148.1     c-2.6-3.2-2-8,1.2-10.5c3.2-2.6,8-2,10.5,1.2c17.7,22.3,28.4,51.1,30.3,81c1.9,29.9-5.2,59.8-20,84.2     C780.5,630.8,778,632.1,775.5,632.1z"/></g><g><path class="st16" d="M347.4,707.8c-7.9,0-15.7-1.9-22.5-5.5c-11.4-6.2-19.7-17.2-22.2-29.5l0,0c-2.5-12.8,1.2-26,10.5-37.2     c11-13.1,27.8-21.1,43.8-20.7c12.9,0.3,24.5,7.5,31.7,19.8c8.6,14.7,9.6,33.6,2.4,47.2c-6.1,11.6-17.1,20.3-30,24     C356.7,707.2,352,707.8,347.4,707.8z M356.1,629.9c-11.2,0-23.4,6-31.3,15.4c-6.4,7.6-9,16.3-7.3,24.6l0,0     c1.6,7.9,7.1,15.2,14.6,19.2c7.4,4,16.5,4.8,25,2.4c8.9-2.6,16.7-8.8,20.9-16.7c4.8-9,3.9-22.4-2.1-32.5     c-2.7-4.5-8.7-12.2-19.1-12.4C356.6,629.9,356.3,629.9,356.1,629.9z"/></g><g><path class="st16" d="M678.8,572c-2.1,0-4.2-0.2-6.2-0.5c-10.7-1.7-20.6-7.7-27.2-16.3v0c-9-11.7-11.1-26.8-5.7-41.2     c5.7-15.1,18.8-26.5,34.1-29.6c11.4-2.3,23.5,1.7,33.2,11.1c11.3,10.9,17.3,26.6,15.2,40.1c-1.7,10.8-8.1,20.9-17.7,27.8     C696.8,569,687.7,572,678.8,572z M657.3,546.1c4.3,5.6,10.8,9.5,17.8,10.6c6.9,1.1,14.4-0.9,20.7-5.4c6.3-4.6,10.6-11.1,11.6-18     c1.4-8.6-2.9-19.5-10.7-26.9c-3.6-3.5-11-9-19.9-7.2c-10.4,2.1-19.2,9.8-23.1,20.1C650.2,528.8,651.5,538.5,657.3,546.1     L657.3,546.1z"/></g><g><path class="st16" d="M845.2,562.3c-0.2,0-0.5,0-0.7,0c-4.1-0.4-7.2-4-6.8-8.2c4.3-46.4-12.4-94.2-44.6-127.9     c-2.9-3-2.8-7.7,0.2-10.6c3-2.9,7.7-2.8,10.6,0.2c35.2,36.8,53.4,89,48.7,139.6C852.3,559.3,849,562.3,845.2,562.3z"/></g><g><path class="st16" d="M269.5,494.5c-9.6,0.3-9.3,15.3,0.4,15C279.5,509.2,279.1,494.2,269.5,494.5z"/></g><g><path class="st16" d="M313.3,479.4c-9.6,0.3-9.3,15.3,0.4,15C323.3,494.1,322.9,479.1,313.3,479.4z"/></g><g><path class="st16" d="M283.8,531.6c-9.6,0.3-9.3,15.3,0.4,15C293.8,546.4,293.4,531.4,283.8,531.6z"/></g><g><path class="st16" d="M329.4,514.1c-9.6,0.3-9.3,15.3,0.4,15C339.4,528.8,339,513.8,329.4,514.1z"/></g><g><path class="st16" d="M592.2,376.8c-9.6,0.3-9.3,15.3,0.4,15C602.3,391.5,601.9,376.5,592.2,376.8z"/></g><g><path class="st16" d="M631.7,357c-9.6,0.3-9.3,15.3,0.4,15C641.7,371.7,641.3,356.7,631.7,357z"/></g><g><path class="st16" d="M610.2,413.3c-9.6,0.3-9.3,15.3,0.4,15C620.2,428,619.8,413,610.2,413.3z"/></g><g><path class="st16" d="M651.4,393.4c-9.6,0.3-9.3,15.3,0.4,15C661.5,408.1,661.1,393.1,651.4,393.4z"/></g></g></g></svg>